<svg width="20" height="12" viewBox="0 0 20 12" fill="none" xmlns="http://www.w3.org/2000/svg">
<path d="M19.1128 5.5717C18.9087 3.27082 17.0069 1.5606 14.8426 1.5606L5.22578 1.5606C5.194 1.5606 5.15245 1.54678 5.11259 1.50359C5.07243 1.46007 5.04406 1.3959 5.04406 1.32196C5.04406 1.24803 5.07243 1.18385 5.11259 1.14034C5.15245 1.09715 5.194 1.08333 5.22578 1.08333L14.9971 1.08333C17.5903 1.08333 19.7314 3.49867 19.4801 6.48915C19.2565 9.0506 17.1337 10.9167 14.7881 10.9167L3.6351 10.9167C1.8407 10.9167 0.32889 9.22921 0.515447 7.13759L0.515467 7.13737C0.67486 5.34129 2.15448 4.03787 3.78962 4.03787L13.1792 4.03787C14.1817 4.03787 15.0577 4.9852 14.9446 6.2101C14.8507 7.22824 13.9893 7.96211 13.0519 7.96211L5.22578 7.96211C5.194 7.96211 5.15245 7.94829 5.11259 7.9051C5.07243 7.86159 5.04406 7.79741 5.04406 7.72348C5.04406 7.64954 5.07243 7.58536 5.11259 7.54185C5.15245 7.49866 5.194 7.48484 5.22578 7.48484L13.1792 7.48484C13.9923 7.48484 14.5882 6.7793 14.5882 5.99999C14.5882 5.22069 13.9923 4.51514 13.1792 4.51514L3.6351 4.51514C1.96527 4.51514 0.714258 6.04964 0.873895 7.77928C1.01626 9.32174 2.31823 10.4394 3.76235 10.4394L14.9971 10.4394C17.456 10.4394 19.3443 8.17833 19.1128 5.5717ZM19.1128 5.5717L18.6148 5.6159L19.1128 5.57166C19.1128 5.57168 19.1128 5.57169 19.1128 5.5717Z" fill="white" stroke="white"/>
</svg>
